#N canvas 590 35 711 533 10;
#X obj 71 235 vsl 15 128 0 127 0 0 empty empty R 0 -9 0 10 -262144
-1 -1 8100 1;
#X obj 110 234 vsl 15 128 0 127 0 0 empty empty G 0 -9 0 10 -262144
-1 -1 10900 1;
#X obj 152 235 vsl 15 128 0 127 0 0 empty empty B 0 -9 0 10 -262144
-1 -1 3800 1;
#X obj 274 226 vsl 15 128 0 127 0 0 empty empty Intensity 0 -9 0 10
-262144 -1 -1 0 1;
#X obj 175 460 ctlout;
#X msg 71 371 \$1 1;
#X msg 277 372 \$1 7;
#X msg 110 371 \$1 2;
#X msg 152 370 \$1 3;
#X obj 418 107 oscparse;
#X obj 418 84 netreceive -u -b;
#X msg 418 29 listen 5000;
#X msg 430 57 listen 0;
#X obj 437 162 print;
#X obj 418 131 list trim;
#X obj 273 174 line;
#X msg 273 146 127 \, 0 200;
#X obj 9 83 random 127;
#X floatatom 10 153 5 0 0 0 - - -, f 5;
#X obj 333 27 bng 15 250 50 0 empty empty empty 17 7 0 10 -262144 -1
-1;
#X obj 88 84 random 127;
#X floatatom 72 152 5 0 0 0 - - -, f 5;
#X obj 165 84 random 127;
#X floatatom 168 151 5 0 0 0 - - -, f 5;
#X obj 372 6 loadbang;
#X connect 0 0 5 0;
#X connect 1 0 7 0;
#X connect 2 0 8 0;
#X connect 3 0 6 0;
#X connect 5 0 4 0;
#X connect 6 0 4 0;
#X connect 7 0 4 0;
#X connect 8 0 4 0;
#X connect 9 0 14 0;
#X connect 10 0 9 0;
#X connect 11 0 10 0;
#X connect 12 0 10 0;
#X connect 14 0 13 0;
#X connect 14 0 16 0;
#X connect 14 0 19 0;
#X connect 15 0 3 0;
#X connect 16 0 15 0;
#X connect 17 0 18 0;
#X connect 17 0 0 0;
#X connect 19 0 17 0;
#X connect 19 0 20 0;
#X connect 19 0 22 0;
#X connect 20 0 21 0;
#X connect 20 0 1 0;
#X connect 22 0 23 0;
#X connect 22 0 2 0;
#X connect 24 0 11 0;
